<svg width="1061" height="222" viewBox="0 0 1061 222" fill="none" xmlns="http://www.w3.org/2000/svg">
<path d="M37.4286 54C25.5939 54 16 63.5939 16 75.4286V123.429C16 135.263 25.5939 144.857 37.4286 144.857H49.8195C50.0016 144.857 50.1802 144.907 50.3361 145.001L98.0095 173.77C99.7367 174.812 101.422 172.126 100.676 169.52L93.9796 146.132C93.7966 145.493 94.2763 144.857 94.9409 144.857H102.571C114.406 144.857 124 135.263 124 123.429V75.4286C124 63.5939 114.406 54 102.571 54H37.4286Z" stroke="#0F96DF" stroke-width="10"/>
<path d="M79.0298 72.6549C84.4666 73.7531 88.5308 76.1247 91.2224 79.7698C93.9769 83.3731 94.8314 87.7625 93.786 92.938C92.7511 98.0612 90.3124 101.649 86.4698 103.703C82.6378 105.703 78.0034 106.155 72.5665 105.057L71.0332 111.031L61.388 109.083L63.6886 95.6731L67.2173 96.3859C71.7655 97.3046 75.3895 97.4109 78.0894 96.7048C80.7893 95.9987 82.4614 94.0512 83.1055 90.8623C83.5701 88.5621 83.2601 86.5951 82.1754 84.9613C81.1431 83.3381 79.4768 82.2942 77.1765 81.8296C74.7718 81.3438 72.7578 81.6172 71.1346 82.6495C69.5637 83.6925 68.5459 85.3641 68.0813 87.6643L57.7303 85.5735C58.3222 82.374 59.5773 79.6621 61.4956 77.4379C63.414 75.2137 65.8749 73.6704 68.8785 72.808C71.9343 71.9562 75.318 71.9051 79.0298 72.6549ZM62.3858 128.791C60.3992 128.39 58.8739 127.456 57.8099 125.989C56.8086 124.481 56.4928 122.812 56.8624 120.983C57.232 119.153 58.1655 117.764 59.6631 116.815C61.2234 115.824 62.9969 115.529 64.9834 115.931C66.9177 116.321 68.3855 117.271 69.3867 118.779C70.3985 120.235 70.7196 121.877 70.35 123.707C69.9804 125.537 69.0416 126.952 67.5335 127.953C66.0359 128.902 64.32 129.181 62.3858 128.791Z" fill="#0F96DF"/>
<path d="M264.232 88.092C264.232 93.468 262.936 98.508 260.344 103.212C257.848 107.916 253.864 111.708 248.392 114.588C243.016 117.468 236.2 118.908 227.944 118.908H211.096V157.5H190.936V56.988H227.944C235.72 56.988 242.344 58.332 247.816 61.02C253.288 63.708 257.368 67.404 260.056 72.108C262.84 76.812 264.232 82.14 264.232 88.092ZM227.08 102.636C232.648 102.636 236.776 101.388 239.464 98.892C242.152 96.3 243.496 92.7 243.496 88.092C243.496 78.3 238.024 73.404 227.08 73.404H211.096V102.636H227.08ZM352.705 115.884C352.705 118.764 352.513 121.356 352.129 123.66H293.809C294.289 129.42 296.305 133.932 299.857 137.196C303.409 140.46 307.777 142.092 312.961 142.092C320.449 142.092 325.777 138.876 328.945 132.444H350.689C348.385 140.124 343.969 146.46 337.441 151.452C330.913 156.348 322.897 158.796 313.393 158.796C305.713 158.796 298.801 157.116 292.657 153.756C286.609 150.3 281.857 145.452 278.401 139.212C275.041 132.972 273.361 125.772 273.361 117.612C273.361 109.356 275.041 102.108 278.401 95.868C281.761 89.628 286.465 84.828 292.513 81.468C298.561 78.108 305.521 76.428 313.393 76.428C320.977 76.428 327.745 78.06 333.697 81.324C339.745 84.588 344.401 89.244 347.665 95.292C351.025 101.244 352.705 108.108 352.705 115.884ZM331.825 110.124C331.729 104.94 329.857 100.812 326.209 97.74C322.561 94.572 318.097 92.988 312.817 92.988C307.825 92.988 303.601 94.524 300.145 97.596C296.785 100.572 294.721 104.748 293.953 110.124H331.825ZM387.58 89.388C390.172 85.548 393.724 82.428 398.236 80.028C402.844 77.628 408.076 76.428 413.932 76.428C420.748 76.428 426.892 78.108 432.364 81.468C437.932 84.828 442.3 89.628 445.468 95.868C448.732 102.012 450.364 109.164 450.364 117.324C450.364 125.484 448.732 132.732 445.468 139.068C442.3 145.308 437.932 150.156 432.364 153.612C426.892 157.068 420.748 158.796 413.932 158.796C407.98 158.796 402.748 157.644 398.236 155.34C393.82 152.94 390.268 149.868 387.58 146.124V157.5H367.42V50.94H387.58V89.388ZM429.772 117.324C429.772 112.524 428.764 108.396 426.748 104.94C424.828 101.388 422.236 98.7 418.972 96.876C415.804 95.052 412.348 94.14 408.604 94.14C404.956 94.14 401.5 95.1 398.236 97.02C395.068 98.844 392.476 101.532 390.46 105.084C388.54 108.636 387.58 112.812 387.58 117.612C387.58 122.412 388.54 126.588 390.46 130.14C392.476 133.692 395.068 136.428 398.236 138.348C401.5 140.172 404.956 141.084 408.604 141.084C412.348 141.084 415.804 140.124 418.972 138.204C422.236 136.284 424.828 133.548 426.748 129.996C428.764 126.444 429.772 122.22 429.772 117.324ZM485.174 89.388C487.766 85.548 491.318 82.428 495.83 80.028C500.438 77.628 505.67 76.428 511.526 76.428C518.342 76.428 524.486 78.108 529.958 81.468C535.526 84.828 539.894 89.628 543.062 95.868C546.326 102.012 547.958 109.164 547.958 117.324C547.958 125.484 546.326 132.732 543.062 139.068C539.894 145.308 535.526 150.156 529.958 153.612C524.486 157.068 518.342 158.796 511.526 158.796C505.574 158.796 500.342 157.644 495.83 155.34C491.414 152.94 487.862 149.868 485.174 146.124V157.5H465.014V50.94H485.174V89.388ZM527.366 117.324C527.366 112.524 526.358 108.396 524.342 104.94C522.422 101.388 519.83 98.7 516.566 96.876C513.398 95.052 509.942 94.14 506.198 94.14C502.55 94.14 499.094 95.1 495.83 97.02C492.662 98.844 490.07 101.532 488.054 105.084C486.134 108.636 485.174 112.812 485.174 117.612C485.174 122.412 486.134 126.588 488.054 130.14C490.07 133.692 492.662 136.428 495.83 138.348C499.094 140.172 502.55 141.084 506.198 141.084C509.942 141.084 513.398 140.124 516.566 138.204C519.83 136.284 522.422 133.548 524.342 129.996C526.358 126.444 527.366 122.22 527.366 117.324ZM582.768 50.94V157.5H562.608V50.94H582.768ZM676.846 115.884C676.846 118.764 676.654 121.356 676.27 123.66H617.95C618.43 129.42 620.446 133.932 623.998 137.196C627.55 140.46 631.918 142.092 637.102 142.092C644.59 142.092 649.918 138.876 653.086 132.444H674.83C672.526 140.124 668.11 146.46 661.582 151.452C655.054 156.348 647.038 158.796 637.534 158.796C629.854 158.796 622.942 157.116 616.798 153.756C610.75 150.3 605.998 145.452 602.542 139.212C599.182 132.972 597.502 125.772 597.502 117.612C597.502 109.356 599.182 102.108 602.542 95.868C605.902 89.628 610.606 84.828 616.654 81.468C622.702 78.108 629.662 76.428 637.534 76.428C645.118 76.428 651.886 78.06 657.838 81.324C663.886 84.588 668.542 89.244 671.806 95.292C675.166 101.244 676.846 108.108 676.846 115.884ZM655.966 110.124C655.87 104.94 653.998 100.812 650.35 97.74C646.702 94.572 642.238 92.988 636.958 92.988C631.966 92.988 627.742 94.524 624.286 97.596C620.926 100.572 618.862 104.748 618.094 110.124H655.966ZM800.754 175.212L785.49 156.924C781.266 157.98 776.946 158.508 772.53 158.508C763.122 158.508 754.482 156.3 746.61 151.884C738.738 147.468 732.498 141.372 727.89 133.596C723.282 125.724 720.978 116.844 720.978 106.956C720.978 97.164 723.282 88.38 727.89 80.604C732.498 72.732 738.738 66.588 746.61 62.172C754.482 57.756 763.122 55.548 772.53 55.548C782.034 55.548 790.674 57.756 798.45 62.172C806.322 66.588 812.514 72.732 817.026 80.604C821.634 88.38 823.938 97.164 823.938 106.956C823.938 115.884 822.018 124.044 818.178 131.436C814.434 138.732 809.298 144.684 802.77 149.292L825.81 175.212H800.754ZM741.714 106.956C741.714 113.676 743.01 119.58 745.602 124.668C748.194 129.756 751.794 133.692 756.402 136.476C761.106 139.164 766.482 140.508 772.53 140.508C778.578 140.508 783.906 139.164 788.514 136.476C793.122 133.692 796.722 129.756 799.314 124.668C801.906 119.58 803.202 113.676 803.202 106.956C803.202 100.236 801.906 94.38 799.314 89.388C796.722 84.3 793.122 80.412 788.514 77.724C783.906 75.036 778.578 73.692 772.53 73.692C766.482 73.692 761.106 75.036 756.402 77.724C751.794 80.412 748.194 84.3 745.602 89.388C743.01 94.38 741.714 100.236 741.714 106.956ZM914.529 77.724V157.5H894.225V147.42C891.633 150.876 888.225 153.612 884.001 155.628C879.873 157.548 875.361 158.508 870.465 158.508C864.225 158.508 858.705 157.212 853.905 154.62C849.105 151.932 845.313 148.044 842.529 142.956C839.841 137.772 838.497 131.628 838.497 124.524V77.724H858.657V121.644C858.657 127.98 860.241 132.876 863.409 136.332C866.577 139.692 870.897 141.372 876.369 141.372C881.937 141.372 886.305 139.692 889.473 136.332C892.641 132.876 894.225 127.98 894.225 121.644V77.724H914.529ZM944.644 68.22C941.092 68.22 938.116 67.116 935.716 64.908C933.412 62.604 932.26 59.772 932.26 56.412C932.26 53.052 933.412 50.268 935.716 48.06C938.116 45.756 941.092 44.604 944.644 44.604C948.196 44.604 951.124 45.756 953.428 48.06C955.828 50.268 957.028 53.052 957.028 56.412C957.028 59.772 955.828 62.604 953.428 64.908C951.124 67.116 948.196 68.22 944.644 68.22ZM954.58 77.724V157.5H934.42V77.724H954.58ZM992.931 140.94H1028.5V157.5H970.035V141.228L1004.88 94.284H970.179V77.724H1028.07V93.996L992.931 140.94Z" fill="#ECECEC"/>
</svg>
