<svg width="1061" height="222" viewBox="0 0 1061 222" fill="none" xmlns="http://www.w3.org/2000/svg">
<path d="M37.4286 54.5C25.5939 54.5 16 64.0939 16 75.9286V123.929C16 135.763 25.5939 145.357 37.4286 145.357H49.8195C50.0016 145.357 50.1802 145.407 50.3361 145.501L98.0095 174.27C99.7367 175.312 101.422 172.626 100.676 170.02L93.9796 146.632C93.7966 145.993 94.2763 145.357 94.9409 145.357H102.571C114.406 145.357 124 135.763 124 123.929V75.9286C124 64.0939 114.406 54.5 102.571 54.5H37.4286Z" stroke="#0F96DF" stroke-width="10"/>
<path d="M79.0298 73.1549C84.4666 74.2531 88.5308 76.6247 91.2224 80.2698C93.9769 83.8731 94.8314 88.2625 93.786 93.438C92.7511 98.5612 90.3124 102.149 86.4698 104.203C82.6378 106.203 78.0034 106.655 72.5665 105.557L71.0332 111.531L61.388 109.583L63.6886 96.1731L67.2173 96.8859C71.7655 97.8046 75.3895 97.9109 78.0894 97.2048C80.7893 96.4987 82.4614 94.5512 83.1055 91.3623C83.5701 89.0621 83.2601 87.0951 82.1754 85.4613C81.1431 83.8381 79.4768 82.7942 77.1765 82.3296C74.7718 81.8438 72.7578 82.1172 71.1346 83.1495C69.5637 84.1925 68.5459 85.8641 68.0813 88.1643L57.7303 86.0735C58.3222 82.874 59.5773 80.1621 61.4956 77.9379C63.414 75.7137 65.8749 74.1704 68.8785 73.308C71.9343 72.4562 75.318 72.4051 79.0298 73.1549ZM62.3858 129.291C60.3992 128.89 58.8739 127.956 57.8099 126.489C56.8086 124.981 56.4928 123.312 56.8624 121.483C57.232 119.653 58.1655 118.264 59.6631 117.315C61.2234 116.324 62.9969 116.029 64.9834 116.431C66.9177 116.821 68.3855 117.771 69.3867 119.279C70.3985 120.735 70.7196 122.377 70.35 124.207C69.9804 126.037 69.0416 127.452 67.5335 128.453C66.0359 129.402 64.32 129.681 62.3858 129.291Z" fill="#0F96DF"/>
<path d="M264.232 92.092C264.232 97.468 262.936 102.508 260.344 107.212C257.848 111.916 253.864 115.708 248.392 118.588C243.016 121.468 236.2 122.908 227.944 122.908H211.096V161.5H190.936V60.988H227.944C235.72 60.988 242.344 62.332 247.816 65.02C253.288 67.708 257.368 71.404 260.056 76.108C262.84 80.812 264.232 86.14 264.232 92.092ZM227.08 106.636C232.648 106.636 236.776 105.388 239.464 102.892C242.152 100.3 243.496 96.7 243.496 92.092C243.496 82.3 238.024 77.404 227.08 77.404H211.096V106.636H227.08ZM352.705 119.884C352.705 122.764 352.513 125.356 352.129 127.66H293.809C294.289 133.42 296.305 137.932 299.857 141.196C303.409 144.46 307.777 146.092 312.961 146.092C320.449 146.092 325.777 142.876 328.945 136.444H350.689C348.385 144.124 343.969 150.46 337.441 155.452C330.913 160.348 322.897 162.796 313.393 162.796C305.713 162.796 298.801 161.116 292.657 157.756C286.609 154.3 281.857 149.452 278.401 143.212C275.041 136.972 273.361 129.772 273.361 121.612C273.361 113.356 275.041 106.108 278.401 99.868C281.761 93.628 286.465 88.828 292.513 85.468C298.561 82.108 305.521 80.428 313.393 80.428C320.977 80.428 327.745 82.06 333.697 85.324C339.745 88.588 344.401 93.244 347.665 99.292C351.025 105.244 352.705 112.108 352.705 119.884ZM331.825 114.124C331.729 108.94 329.857 104.812 326.209 101.74C322.561 98.572 318.097 96.988 312.817 96.988C307.825 96.988 303.601 98.524 300.145 101.596C296.785 104.572 294.721 108.748 293.953 114.124H331.825ZM387.58 93.388C390.172 89.548 393.724 86.428 398.236 84.028C402.844 81.628 408.076 80.428 413.932 80.428C420.748 80.428 426.892 82.108 432.364 85.468C437.932 88.828 442.3 93.628 445.468 99.868C448.732 106.012 450.364 113.164 450.364 121.324C450.364 129.484 448.732 136.732 445.468 143.068C442.3 149.308 437.932 154.156 432.364 157.612C426.892 161.068 420.748 162.796 413.932 162.796C407.98 162.796 402.748 161.644 398.236 159.34C393.82 156.94 390.268 153.868 387.58 150.124V161.5H367.42V54.94H387.58V93.388ZM429.772 121.324C429.772 116.524 428.764 112.396 426.748 108.94C424.828 105.388 422.236 102.7 418.972 100.876C415.804 99.052 412.348 98.14 408.604 98.14C404.956 98.14 401.5 99.1 398.236 101.02C395.068 102.844 392.476 105.532 390.46 109.084C388.54 112.636 387.58 116.812 387.58 121.612C387.58 126.412 388.54 130.588 390.46 134.14C392.476 137.692 395.068 140.428 398.236 142.348C401.5 144.172 404.956 145.084 408.604 145.084C412.348 145.084 415.804 144.124 418.972 142.204C422.236 140.284 424.828 137.548 426.748 133.996C428.764 130.444 429.772 126.22 429.772 121.324ZM485.174 93.388C487.766 89.548 491.318 86.428 495.83 84.028C500.438 81.628 505.67 80.428 511.526 80.428C518.342 80.428 524.486 82.108 529.958 85.468C535.526 88.828 539.894 93.628 543.062 99.868C546.326 106.012 547.958 113.164 547.958 121.324C547.958 129.484 546.326 136.732 543.062 143.068C539.894 149.308 535.526 154.156 529.958 157.612C524.486 161.068 518.342 162.796 511.526 162.796C505.574 162.796 500.342 161.644 495.83 159.34C491.414 156.94 487.862 153.868 485.174 150.124V161.5H465.014V54.94H485.174V93.388ZM527.366 121.324C527.366 116.524 526.358 112.396 524.342 108.94C522.422 105.388 519.83 102.7 516.566 100.876C513.398 99.052 509.942 98.14 506.198 98.14C502.55 98.14 499.094 99.1 495.83 101.02C492.662 102.844 490.07 105.532 488.054 109.084C486.134 112.636 485.174 116.812 485.174 121.612C485.174 126.412 486.134 130.588 488.054 134.14C490.07 137.692 492.662 140.428 495.83 142.348C499.094 144.172 502.55 145.084 506.198 145.084C509.942 145.084 513.398 144.124 516.566 142.204C519.83 140.284 522.422 137.548 524.342 133.996C526.358 130.444 527.366 126.22 527.366 121.324ZM582.768 54.94V161.5H562.608V54.94H582.768ZM676.846 119.884C676.846 122.764 676.654 125.356 676.27 127.66H617.95C618.43 133.42 620.446 137.932 623.998 141.196C627.55 144.46 631.918 146.092 637.102 146.092C644.59 146.092 649.918 142.876 653.086 136.444H674.83C672.526 144.124 668.11 150.46 661.582 155.452C655.054 160.348 647.038 162.796 637.534 162.796C629.854 162.796 622.942 161.116 616.798 157.756C610.75 154.3 605.998 149.452 602.542 143.212C599.182 136.972 597.502 129.772 597.502 121.612C597.502 113.356 599.182 106.108 602.542 99.868C605.902 93.628 610.606 88.828 616.654 85.468C622.702 82.108 629.662 80.428 637.534 80.428C645.118 80.428 651.886 82.06 657.838 85.324C663.886 88.588 668.542 93.244 671.806 99.292C675.166 105.244 676.846 112.108 676.846 119.884ZM655.966 114.124C655.87 108.94 653.998 104.812 650.35 101.74C646.702 98.572 642.238 96.988 636.958 96.988C631.966 96.988 627.742 98.524 624.286 101.596C620.926 104.572 618.862 108.748 618.094 114.124H655.966ZM800.754 179.212L785.49 160.924C781.266 161.98 776.946 162.508 772.53 162.508C763.122 162.508 754.482 160.3 746.61 155.884C738.738 151.468 732.498 145.372 727.89 137.596C723.282 129.724 720.978 120.844 720.978 110.956C720.978 101.164 723.282 92.38 727.89 84.604C732.498 76.732 738.738 70.588 746.61 66.172C754.482 61.756 763.122 59.548 772.53 59.548C782.034 59.548 790.674 61.756 798.45 66.172C806.322 70.588 812.514 76.732 817.026 84.604C821.634 92.38 823.938 101.164 823.938 110.956C823.938 119.884 822.018 128.044 818.178 135.436C814.434 142.732 809.298 148.684 802.77 153.292L825.81 179.212H800.754ZM741.714 110.956C741.714 117.676 743.01 123.58 745.602 128.668C748.194 133.756 751.794 137.692 756.402 140.476C761.106 143.164 766.482 144.508 772.53 144.508C778.578 144.508 783.906 143.164 788.514 140.476C793.122 137.692 796.722 133.756 799.314 128.668C801.906 123.58 803.202 117.676 803.202 110.956C803.202 104.236 801.906 98.38 799.314 93.388C796.722 88.3 793.122 84.412 788.514 81.724C783.906 79.036 778.578 77.692 772.53 77.692C766.482 77.692 761.106 79.036 756.402 81.724C751.794 84.412 748.194 88.3 745.602 93.388C743.01 98.38 741.714 104.236 741.714 110.956ZM914.529 81.724V161.5H894.225V151.42C891.633 154.876 888.225 157.612 884.001 159.628C879.873 161.548 875.361 162.508 870.465 162.508C864.225 162.508 858.705 161.212 853.905 158.62C849.105 155.932 845.313 152.044 842.529 146.956C839.841 141.772 838.497 135.628 838.497 128.524V81.724H858.657V125.644C858.657 131.98 860.241 136.876 863.409 140.332C866.577 143.692 870.897 145.372 876.369 145.372C881.937 145.372 886.305 143.692 889.473 140.332C892.641 136.876 894.225 131.98 894.225 125.644V81.724H914.529ZM944.644 72.22C941.092 72.22 938.116 71.116 935.716 68.908C933.412 66.604 932.26 63.772 932.26 60.412C932.26 57.052 933.412 54.268 935.716 52.06C938.116 49.756 941.092 48.604 944.644 48.604C948.196 48.604 951.124 49.756 953.428 52.06C955.828 54.268 957.028 57.052 957.028 60.412C957.028 63.772 955.828 66.604 953.428 68.908C951.124 71.116 948.196 72.22 944.644 72.22ZM954.58 81.724V161.5H934.42V81.724H954.58ZM992.931 144.94H1028.5V161.5H970.035V145.228L1004.88 98.284H970.179V81.724H1028.07V97.996L992.931 144.94Z" fill="#333333"/>
</svg>
