<svg width="48" height="48" viewBox="0 0 48 48" fill="none" xmlns="http://www.w3.org/2000/svg">
<path d="M24 0.75C11.1593 0.75 0.75 11.1593 0.75 24C0.75 36.8407 11.1593 47.25 24 47.25C36.8407 47.25 47.25 36.8407 47.25 24C47.25 11.1593 36.8407 0.75 24 0.75ZM24 5.25C34.3624 5.25 42.75 13.636 42.75 24C42.75 34.3624 34.364 42.75 24 42.75C13.6376 42.75 5.25 34.364 5.25 24C5.25 13.6376 13.636 5.25 24 5.25ZM37.1441 17.4625L35.0314 15.3327C34.5938 14.8916 33.8815 14.8887 33.4404 15.3263L20.1887 28.4716L14.5832 22.8206C14.1457 22.3795 13.4333 22.3766 12.9922 22.8142L10.8623 24.9269C10.4212 25.3644 10.4183 26.0768 10.856 26.5179L19.3667 35.0976C19.8042 35.5387 20.5165 35.5416 20.9576 35.1039L37.1378 19.0536C37.5788 18.6159 37.5817 17.9036 37.1441 17.4625V17.4625Z" fill="#065d8b"/>
</svg>
