<svg width="64" height="64" viewBox="0 0 64 64" fill="none" xmlns="http://www.w3.org/2000/svg">
<rect width="64" height="64" rx="10" fill="#D8D8D8"/>
<path d="M31.3179 8C18.4772 8 8.06787 18.4093 8.06787 31.25C8.06787 44.0907 18.4772 54.5 31.3179 54.5C44.1585 54.5 54.5679 44.0907 54.5679 31.25C54.5679 18.4093 44.1585 8 31.3179 8ZM31.3179 12.5C41.6802 12.5 50.0679 20.886 50.0679 31.25C50.0679 41.6124 41.6818 50 31.3179 50C20.9555 50 12.5679 41.614 12.5679 31.25C12.5679 20.8876 20.9539 12.5 31.3179 12.5ZM44.462 24.7125L42.3492 22.5827C41.9117 22.1416 41.1994 22.1387 40.7583 22.5763L27.5066 35.7216L21.9011 30.0706C21.4635 29.6295 20.7512 29.6266 20.3101 30.0642L18.1802 32.1769C17.7391 32.6144 17.7362 33.3268 18.1738 33.7679L26.6846 42.3476C27.1221 42.7887 27.8344 42.7916 28.2755 42.3539L44.4557 26.3036C44.8967 25.8659 44.8995 25.1536 44.462 24.7125V24.7125Z" fill="#065D8B"/>
</svg>
