<svg width="64" height="64" viewBox="0 0 64 64" fill="none" xmlns="http://www.w3.org/2000/svg">
<rect width="64" height="64" rx="10" fill="#D8D8D8"/>
<path d="M17.875 15V48.75H16V52.5H23.5V48.75H21.625V39.375H46C46.4973 39.375 46.9742 39.1775 47.3258 38.8258C47.6775 38.4742 47.875 37.9973 47.875 37.5V18.75C47.875 18.2527 47.6775 17.7758 47.3258 17.4242C46.9742 17.0725 46.4973 16.875 46 16.875H21.625V15H17.875ZM25.375 20.625V24.375H29.125V20.625H32.875V24.375H36.625V20.625H40.375V24.375H44.125V28.125H40.375V31.875H44.125V35.625H40.375V31.875H36.625V35.625H32.875V31.875H29.125V35.625H25.375V31.875H21.625V28.125H25.375V24.375H21.625V20.625H25.375Z" fill="#065D8B"/>
<path d="M24.6294 27.9472H28.3794V31.6972H24.6294V27.9472ZM32.1294 27.9472H35.8794V31.6972H32.1294V27.9472ZM28.3794 24.1972H32.1294V27.9472H28.3794V24.1972ZM35.8794 24.1972H39.6294V27.9472H35.8794V24.1972Z" fill="#065D8B"/>
</svg>
