<svg width="32" height="32" viewBox="0 0 32 32" fill="none" xmlns="http://www.w3.org/2000/svg">
<path d="M14.6666 24H17.3333V21.3333H14.6666V24ZM16 2.66663C8.63996 2.66663 2.66663 8.63996 2.66663 16C2.66663 23.36 8.63996 29.3333 16 29.3333C23.36 29.3333 29.3333 23.36 29.3333 16C29.3333 8.63996 23.36 2.66663 16 2.66663ZM16 26.6666C10.12 26.6666 5.33329 21.88 5.33329 16C5.33329 10.12 10.12 5.33329 16 5.33329C21.88 5.33329 26.6666 10.12 26.6666 16C26.6666 21.88 21.88 26.6666 16 26.6666ZM16 7.99996C13.0533 7.99996 10.6666 10.3866 10.6666 13.3333H13.3333C13.3333 11.8666 14.5333 10.6666 16 10.6666C17.4666 10.6666 18.6666 11.8666 18.6666 13.3333C18.6666 16 14.6666 15.6666 14.6666 20H17.3333C17.3333 17 21.3333 16.6666 21.3333 13.3333C21.3333 10.3866 18.9466 7.99996 16 7.99996Z" fill="white"/>
</svg>
