<svg width="33" height="33" viewBox="0 0 33 33" fill="none" xmlns="http://www.w3.org/2000/svg">
<path d="M16.5 29.5625C18.0125 29.5625 19.25 28.325 19.25 26.8125H13.75C13.75 28.325 14.9875 29.5625 16.5 29.5625ZM24.75 21.3125V14.4375C24.75 10.2162 22.5087 6.6825 18.5625 5.7475V4.8125C18.5625 3.67125 17.6412 2.75 16.5 2.75C15.3588 2.75 14.4375 3.67125 14.4375 4.8125V5.7475C10.505 6.6825 8.25 10.2025 8.25 14.4375V21.3125L5.5 24.0625V25.4375H27.5V24.0625L24.75 21.3125ZM22 22.6875H11V14.4375C11 11.0275 13.0763 8.25 16.5 8.25C19.9237 8.25 22 11.0275 22 14.4375V22.6875Z" fill="white"/>
</svg>
