<svg width="30" height="29" viewBox="0 0 30 29" fill="none" xmlns="http://www.w3.org/2000/svg">
<path d="M23.925 15.631C23.97 15.2685 24 14.8915 24 14.5C24 14.1085 23.97 13.7315 23.91 13.369L26.445 11.455C26.67 11.281 26.73 10.962 26.595 10.7155L24.195 6.69902C24.045 6.43802 23.73 6.35102 23.46 6.43802L20.475 7.59802C19.845 7.13402 19.185 6.75702 18.45 6.46702L18 3.39302C17.955 3.10302 17.7 2.90002 17.4 2.90002H12.6C12.3 2.90002 12.06 3.10302 12.015 3.39302L11.565 6.46702C10.83 6.75702 10.155 7.14852 9.54001 7.59802L6.55501 6.43802C6.28501 6.33652 5.97001 6.43802 5.82001 6.69902L3.42001 10.7155C3.27001 10.9765 3.33001 11.281 3.57001 11.455L6.10501 13.369C6.04501 13.7315 6.00001 14.123 6.00001 14.5C6.00001 14.877 6.03001 15.2685 6.09001 15.631L3.55501 17.545C3.33001 17.719 3.27001 18.038 3.40501 18.2845L5.80501 22.301C5.95501 22.562 6.27001 22.649 6.54001 22.562L9.52501 21.402C10.155 21.866 10.815 22.243 11.55 22.533L12 25.607C12.06 25.897 12.3 26.1 12.6 26.1H17.4C17.7 26.1 17.955 25.897 17.985 25.607L18.435 22.533C19.17 22.243 19.845 21.8515 20.46 21.402L23.445 22.562C23.715 22.6635 24.03 22.562 24.18 22.301L26.58 18.2845C26.73 18.0235 26.67 17.719 26.43 17.545L23.925 15.631ZM15 18.85C12.525 18.85 10.5 16.8925 10.5 14.5C10.5 12.1075 12.525 10.15 15 10.15C17.475 10.15 19.5 12.1075 19.5 14.5C19.5 16.8925 17.475 18.85 15 18.85Z" fill="white"/>
</svg>
