<svg width="43" height="42" viewBox="0 0 43 42" fill="none" xmlns="http://www.w3.org/2000/svg">
<path d="M26.0411 30.05L26.0423 30.0509C26.7218 30.5416 27.6673 30.3918 28.1604 29.7218L28.1621 29.7194L30.55 26.4339L30.5509 26.4327C31.0379 25.7584 30.906 24.8091 30.2185 24.3122C30.2184 24.3121 30.2183 24.3121 30.2181 24.312L25.0484 20.5507V9.14516C25.0484 8.31015 24.3673 7.62903 23.5323 7.62903H19.4677C18.6327 7.62903 17.9516 8.31015 17.9516 9.14516V23.3964C17.9516 23.8767 18.1792 24.3304 18.5686 24.6193L18.5686 24.6193L18.5726 24.6222L26.0411 30.05ZM1 21C1 9.67534 10.1753 0.5 21.5 0.5C32.8247 0.5 42 9.67534 42 21C42 32.3247 32.8247 41.5 21.5 41.5C10.1753 41.5 1 32.3247 1 21Z" fill="black" stroke="black"/>
</svg>
