<svg width="48" height="48" viewBox="0 0 48 48" fill="none" xmlns="http://www.w3.org/2000/svg">
<path d="M23.932 0.829346C11.0883 0.829346 0.682007 11.2356 0.682007 24.0793C0.682007 36.9231 11.0883 47.3293 23.932 47.3293C36.7758 47.3293 47.182 36.9231 47.182 24.0793C47.182 11.2356 36.7758 0.829346 23.932 0.829346ZM23.932 42.8293C13.5726 42.8293 5.18201 34.4387 5.18201 24.0793C5.18201 13.72 13.5726 5.32935 23.932 5.32935C34.2914 5.32935 42.682 13.72 42.682 24.0793C42.682 34.4387 34.2914 42.8293 23.932 42.8293ZM29.7258 33.0418L21.7664 27.2575C21.4758 27.0418 21.307 26.7043 21.307 26.3481V10.9543C21.307 10.3356 21.8133 9.82935 22.432 9.82935H25.432C26.0508 9.82935 26.557 10.3356 26.557 10.9543V24.2387L32.8195 28.795C33.3258 29.1606 33.4289 29.8637 33.0633 30.37L31.3008 32.7981C30.9351 33.295 30.232 33.4075 29.7258 33.0418Z" fill="#065d8b"/>
</svg>
