<svg width="150" height="150" viewBox="0 0 150 150" fill="none" xmlns="http://www.w3.org/2000/svg">
<path d="M37.4286 11C25.5939 11 16 20.5939 16 32.4286V80.4286C16 92.2633 25.5939 101.857 37.4286 101.857H49.8195C50.0016 101.857 50.1802 101.907 50.3361 102.001L98.0095 130.77C99.7367 131.812 101.422 129.126 100.676 126.52L93.9796 103.132C93.7966 102.493 94.2763 101.857 94.9409 101.857H102.571C114.406 101.857 124 92.2632 124 80.4286V32.4286C124 20.5939 114.406 11 102.571 11H37.4286Z" stroke="#0F96DF" stroke-width="10"/>
<path d="M79.0298 29.655C84.4666 30.7532 88.5308 33.1248 91.2224 36.7699C93.9769 40.3733 94.8314 44.7627 93.786 49.9381C92.7511 55.0613 90.3124 58.6495 86.4698 60.7027C82.6378 62.7036 78.0034 63.155 72.5665 62.0568L71.0332 68.0315L61.388 66.0832L63.6886 52.6732L67.2173 53.386C71.7655 54.3047 75.3895 54.411 78.0894 53.7049C80.7893 52.9988 82.4614 51.0513 83.1055 47.8624C83.5701 45.5622 83.2601 43.5952 82.1754 41.9614C81.1431 40.3382 79.4768 39.2943 77.1765 38.8297C74.7718 38.344 72.7578 38.6173 71.1346 39.6497C69.5637 40.6926 68.5459 42.3642 68.0813 44.6644L57.7303 42.5736C58.3222 39.3741 59.5773 36.6623 61.4956 34.4381C63.414 32.2138 65.8749 30.6705 68.8785 29.8081C71.9343 28.9563 75.318 28.9053 79.0298 29.655ZM62.3858 85.7909C60.3992 85.3896 58.8739 84.4558 57.8099 82.9894C56.8086 81.4814 56.4928 79.8124 56.8624 77.9827C57.232 76.153 58.1655 74.7637 59.6631 73.8147C61.2234 72.8241 62.9969 72.5294 64.9834 72.9306C66.9177 73.3213 68.3855 74.2707 69.3867 75.7788C70.3985 77.2346 70.7196 78.8774 70.35 80.7071C69.9804 82.5368 69.0416 83.9523 67.5335 84.9535C66.0359 85.9025 64.32 86.1816 62.3858 85.7909Z" fill="#0F96DF"/>
</svg>
