<svg width="1102" height="222" viewBox="0 0 1102 222" fill="none" xmlns="http://www.w3.org/2000/svg">
<path d="M45.6032 57C32.0152 57 21 68.033 21 81.6429V136.843C21 150.453 32.0152 161.486 45.6032 161.486H59.8706C60.053 161.486 60.2318 161.536 60.3879 161.63L115.159 194.735C117.142 195.934 119.077 192.845 118.22 189.848L110.477 162.761C110.295 162.122 110.774 161.486 111.439 161.486H120.397C133.985 161.486 145 150.453 145 136.843V81.6429C145 68.033 133.985 57 120.397 57H45.6032Z" stroke="#ECECEC" stroke-width="10"/>
<path d="M87.7319 85.397C93.1688 86.4952 97.233 88.8669 99.9246 92.512C102.679 96.1153 103.534 100.505 102.488 105.68C101.453 110.803 99.0146 114.392 95.172 116.445C91.34 118.446 86.7055 118.897 81.2686 117.799L79.7353 123.774L70.0901 121.825L72.3908 108.415L75.9195 109.128C80.4676 110.047 84.0917 110.153 86.7916 109.447C89.4915 108.741 91.1635 106.793 91.8077 103.604C92.2723 101.304 91.9623 99.3373 90.8776 97.7035C89.8452 96.0803 88.1789 95.0364 85.8787 94.5718C83.4739 94.086 81.4599 94.3593 79.8367 95.3917C78.2658 96.4347 77.248 98.1063 76.7834 100.406L66.4325 98.3157C67.0243 95.1162 68.2794 92.4043 70.1978 90.1801C72.1161 87.9559 74.5771 86.4126 77.5806 85.5502C80.6364 84.6984 84.0202 84.6473 87.7319 85.397ZM71.0879 141.533C69.1014 141.132 67.5761 140.198 66.512 138.732C65.5108 137.223 65.1949 135.555 65.5645 133.725C65.9341 131.895 66.8677 130.506 68.3652 129.557C69.9256 128.566 71.699 128.271 73.6856 128.673C75.6199 129.063 77.0876 130.013 78.0888 131.521C79.1006 132.977 79.4217 134.619 79.0521 136.449C78.6825 138.279 77.7437 139.694 76.2356 140.696C74.7381 141.645 73.0222 141.924 71.0879 141.533Z" fill="#ECECEC"/>
<path d="M295.232 102.092C295.232 107.468 293.936 112.508 291.344 117.212C288.848 121.916 284.864 125.708 279.392 128.588C274.016 131.468 267.2 132.908 258.944 132.908H242.096V171.5H221.936V70.988H258.944C266.72 70.988 273.344 72.332 278.816 75.02C284.288 77.708 288.368 81.404 291.056 86.108C293.84 90.812 295.232 96.14 295.232 102.092ZM258.08 116.636C263.648 116.636 267.776 115.388 270.464 112.892C273.152 110.3 274.496 106.7 274.496 102.092C274.496 92.3 269.024 87.404 258.08 87.404H242.096V116.636H258.08ZM383.705 129.884C383.705 132.764 383.513 135.356 383.129 137.66H324.809C325.289 143.42 327.305 147.932 330.857 151.196C334.409 154.46 338.777 156.092 343.961 156.092C351.449 156.092 356.777 152.876 359.945 146.444H381.689C379.385 154.124 374.969 160.46 368.441 165.452C361.913 170.348 353.897 172.796 344.393 172.796C336.713 172.796 329.801 171.116 323.657 167.756C317.609 164.3 312.857 159.452 309.401 153.212C306.041 146.972 304.361 139.772 304.361 131.612C304.361 123.356 306.041 116.108 309.401 109.868C312.761 103.628 317.465 98.828 323.513 95.468C329.561 92.108 336.521 90.428 344.393 90.428C351.977 90.428 358.745 92.06 364.697 95.324C370.745 98.588 375.401 103.244 378.665 109.292C382.025 115.244 383.705 122.108 383.705 129.884ZM362.825 124.124C362.729 118.94 360.857 114.812 357.209 111.74C353.561 108.572 349.097 106.988 343.817 106.988C338.825 106.988 334.601 108.524 331.145 111.596C327.785 114.572 325.721 118.748 324.953 124.124H362.825ZM418.58 103.388C421.172 99.548 424.724 96.428 429.236 94.028C433.844 91.628 439.076 90.428 444.932 90.428C451.748 90.428 457.892 92.108 463.364 95.468C468.932 98.828 473.3 103.628 476.468 109.868C479.732 116.012 481.364 123.164 481.364 131.324C481.364 139.484 479.732 146.732 476.468 153.068C473.3 159.308 468.932 164.156 463.364 167.612C457.892 171.068 451.748 172.796 444.932 172.796C438.98 172.796 433.748 171.644 429.236 169.34C424.82 166.94 421.268 163.868 418.58 160.124V171.5H398.42V64.94H418.58V103.388ZM460.772 131.324C460.772 126.524 459.764 122.396 457.748 118.94C455.828 115.388 453.236 112.7 449.972 110.876C446.804 109.052 443.348 108.14 439.604 108.14C435.956 108.14 432.5 109.1 429.236 111.02C426.068 112.844 423.476 115.532 421.46 119.084C419.54 122.636 418.58 126.812 418.58 131.612C418.58 136.412 419.54 140.588 421.46 144.14C423.476 147.692 426.068 150.428 429.236 152.348C432.5 154.172 435.956 155.084 439.604 155.084C443.348 155.084 446.804 154.124 449.972 152.204C453.236 150.284 455.828 147.548 457.748 143.996C459.764 140.444 460.772 136.22 460.772 131.324ZM516.174 103.388C518.766 99.548 522.318 96.428 526.83 94.028C531.438 91.628 536.67 90.428 542.526 90.428C549.342 90.428 555.486 92.108 560.958 95.468C566.526 98.828 570.894 103.628 574.062 109.868C577.326 116.012 578.958 123.164 578.958 131.324C578.958 139.484 577.326 146.732 574.062 153.068C570.894 159.308 566.526 164.156 560.958 167.612C555.486 171.068 549.342 172.796 542.526 172.796C536.574 172.796 531.342 171.644 526.83 169.34C522.414 166.94 518.862 163.868 516.174 160.124V171.5H496.014V64.94H516.174V103.388ZM558.366 131.324C558.366 126.524 557.358 122.396 555.342 118.94C553.422 115.388 550.83 112.7 547.566 110.876C544.398 109.052 540.942 108.14 537.198 108.14C533.55 108.14 530.094 109.1 526.83 111.02C523.662 112.844 521.07 115.532 519.054 119.084C517.134 122.636 516.174 126.812 516.174 131.612C516.174 136.412 517.134 140.588 519.054 144.14C521.07 147.692 523.662 150.428 526.83 152.348C530.094 154.172 533.55 155.084 537.198 155.084C540.942 155.084 544.398 154.124 547.566 152.204C550.83 150.284 553.422 147.548 555.342 143.996C557.358 140.444 558.366 136.22 558.366 131.324ZM613.768 64.94V171.5H593.608V64.94H613.768ZM707.846 129.884C707.846 132.764 707.654 135.356 707.27 137.66H648.95C649.43 143.42 651.446 147.932 654.998 151.196C658.55 154.46 662.918 156.092 668.102 156.092C675.59 156.092 680.918 152.876 684.086 146.444H705.83C703.526 154.124 699.11 160.46 692.582 165.452C686.054 170.348 678.038 172.796 668.534 172.796C660.854 172.796 653.942 171.116 647.798 167.756C641.75 164.3 636.998 159.452 633.542 153.212C630.182 146.972 628.502 139.772 628.502 131.612C628.502 123.356 630.182 116.108 633.542 109.868C636.902 103.628 641.606 98.828 647.654 95.468C653.702 92.108 660.662 90.428 668.534 90.428C676.118 90.428 682.886 92.06 688.838 95.324C694.886 98.588 699.542 103.244 702.806 109.292C706.166 115.244 707.846 122.108 707.846 129.884ZM686.966 124.124C686.87 118.94 684.998 114.812 681.35 111.74C677.702 108.572 673.238 106.988 667.958 106.988C662.966 106.988 658.742 108.524 655.286 111.596C651.926 114.572 649.862 118.748 649.094 124.124H686.966ZM831.754 189.212L816.49 170.924C812.266 171.98 807.946 172.508 803.53 172.508C794.122 172.508 785.482 170.3 777.61 165.884C769.738 161.468 763.498 155.372 758.89 147.596C754.282 139.724 751.978 130.844 751.978 120.956C751.978 111.164 754.282 102.38 758.89 94.604C763.498 86.732 769.738 80.588 777.61 76.172C785.482 71.756 794.122 69.548 803.53 69.548C813.034 69.548 821.674 71.756 829.45 76.172C837.322 80.588 843.514 86.732 848.026 94.604C852.634 102.38 854.938 111.164 854.938 120.956C854.938 129.884 853.018 138.044 849.178 145.436C845.434 152.732 840.298 158.684 833.77 163.292L856.81 189.212H831.754ZM772.714 120.956C772.714 127.676 774.01 133.58 776.602 138.668C779.194 143.756 782.794 147.692 787.402 150.476C792.106 153.164 797.482 154.508 803.53 154.508C809.578 154.508 814.906 153.164 819.514 150.476C824.122 147.692 827.722 143.756 830.314 138.668C832.906 133.58 834.202 127.676 834.202 120.956C834.202 114.236 832.906 108.38 830.314 103.388C827.722 98.3 824.122 94.412 819.514 91.724C814.906 89.036 809.578 87.692 803.53 87.692C797.482 87.692 792.106 89.036 787.402 91.724C782.794 94.412 779.194 98.3 776.602 103.388C774.01 108.38 772.714 114.236 772.714 120.956ZM945.529 91.724V171.5H925.225V161.42C922.633 164.876 919.225 167.612 915.001 169.628C910.873 171.548 906.361 172.508 901.465 172.508C895.225 172.508 889.705 171.212 884.905 168.62C880.105 165.932 876.313 162.044 873.529 156.956C870.841 151.772 869.497 145.628 869.497 138.524V91.724H889.657V135.644C889.657 141.98 891.241 146.876 894.409 150.332C897.577 153.692 901.897 155.372 907.369 155.372C912.937 155.372 917.305 153.692 920.473 150.332C923.641 146.876 925.225 141.98 925.225 135.644V91.724H945.529ZM975.644 82.22C972.092 82.22 969.116 81.116 966.716 78.908C964.412 76.604 963.26 73.772 963.26 70.412C963.26 67.052 964.412 64.268 966.716 62.06C969.116 59.756 972.092 58.604 975.644 58.604C979.196 58.604 982.124 59.756 984.428 62.06C986.828 64.268 988.028 67.052 988.028 70.412C988.028 73.772 986.828 76.604 984.428 78.908C982.124 81.116 979.196 82.22 975.644 82.22ZM985.58 91.724V171.5H965.42V91.724H985.58ZM1023.93 154.94H1059.5V171.5H1001.03V155.228L1035.88 108.284H1001.18V91.724H1059.07V107.996L1023.93 154.94Z" fill="#ECECEC"/>
</svg>
