<svg width="1122" height="222" viewBox="0 0 1122 222" fill="none" xmlns="http://www.w3.org/2000/svg">
<path d="M45.6032 45.5C32.0152 45.5 21 56.533 21 70.1429V125.343C21 138.953 32.0152 149.986 45.6032 149.986H59.8706C60.053 149.986 60.2318 150.036 60.3879 150.13L115.159 183.235C117.142 184.434 119.077 181.345 118.22 178.348L110.477 151.261C110.295 150.622 110.774 149.986 111.439 149.986H120.397C133.985 149.986 145 138.953 145 125.343V70.1429C145 56.533 133.985 45.5 120.397 45.5H45.6032Z" stroke="#0F96DF" stroke-width="10"/>
<path d="M87.7319 73.897C93.1688 74.9952 97.233 77.3669 99.9246 81.012C102.679 84.6153 103.534 89.0047 102.488 94.1802C101.453 99.3034 99.0146 102.892 95.172 104.945C91.34 106.946 86.7055 107.397 81.2686 106.299L79.7353 112.274L70.0901 110.325L72.3908 96.9153L75.9195 97.6281C80.4676 98.5468 84.0917 98.6531 86.7916 97.947C89.4915 97.2409 91.1635 95.2934 91.8077 92.1045C92.2723 89.8043 91.9623 87.8373 90.8776 86.2035C89.8452 84.5803 88.1789 83.5364 85.8787 83.0718C83.4739 82.586 81.4599 82.8593 79.8367 83.8917C78.2658 84.9347 77.248 86.6063 76.7834 88.9065L66.4325 86.8157C67.0243 83.6162 68.2794 80.9043 70.1978 78.6801C72.1161 76.4559 74.5771 74.9126 77.5806 74.0502C80.6364 73.1984 84.0202 73.1473 87.7319 73.897ZM71.0879 130.033C69.1014 129.632 67.5761 128.698 66.512 127.232C65.5108 125.723 65.1949 124.055 65.5645 122.225C65.9341 120.395 66.8677 119.006 68.3652 118.057C69.9256 117.066 71.699 116.771 73.6856 117.173C75.6199 117.563 77.0876 118.513 78.0888 120.021C79.1006 121.477 79.4217 123.119 79.0521 124.949C78.6825 126.779 77.7437 128.194 76.2356 129.196C74.7381 130.145 73.0222 130.424 71.0879 130.033Z" fill="#0F96DF"/>
<path d="M294.232 92.092C294.232 97.468 292.936 102.508 290.344 107.212C287.848 111.916 283.864 115.708 278.392 118.588C273.016 121.468 266.2 122.908 257.944 122.908H241.096V161.5H220.936V60.988H257.944C265.72 60.988 272.344 62.332 277.816 65.02C283.288 67.708 287.368 71.404 290.056 76.108C292.84 80.812 294.232 86.14 294.232 92.092ZM257.08 106.636C262.648 106.636 266.776 105.388 269.464 102.892C272.152 100.3 273.496 96.7 273.496 92.092C273.496 82.3 268.024 77.404 257.08 77.404H241.096V106.636H257.08ZM382.705 119.884C382.705 122.764 382.513 125.356 382.129 127.66H323.809C324.289 133.42 326.305 137.932 329.857 141.196C333.409 144.46 337.777 146.092 342.961 146.092C350.449 146.092 355.777 142.876 358.945 136.444H380.689C378.385 144.124 373.969 150.46 367.441 155.452C360.913 160.348 352.897 162.796 343.393 162.796C335.713 162.796 328.801 161.116 322.657 157.756C316.609 154.3 311.857 149.452 308.401 143.212C305.041 136.972 303.361 129.772 303.361 121.612C303.361 113.356 305.041 106.108 308.401 99.868C311.761 93.628 316.465 88.828 322.513 85.468C328.561 82.108 335.521 80.428 343.393 80.428C350.977 80.428 357.745 82.06 363.697 85.324C369.745 88.588 374.401 93.244 377.665 99.292C381.025 105.244 382.705 112.108 382.705 119.884ZM361.825 114.124C361.729 108.94 359.857 104.812 356.209 101.74C352.561 98.572 348.097 96.988 342.817 96.988C337.825 96.988 333.601 98.524 330.145 101.596C326.785 104.572 324.721 108.748 323.953 114.124H361.825ZM417.58 93.388C420.172 89.548 423.724 86.428 428.236 84.028C432.844 81.628 438.076 80.428 443.932 80.428C450.748 80.428 456.892 82.108 462.364 85.468C467.932 88.828 472.3 93.628 475.468 99.868C478.732 106.012 480.364 113.164 480.364 121.324C480.364 129.484 478.732 136.732 475.468 143.068C472.3 149.308 467.932 154.156 462.364 157.612C456.892 161.068 450.748 162.796 443.932 162.796C437.98 162.796 432.748 161.644 428.236 159.34C423.82 156.94 420.268 153.868 417.58 150.124V161.5H397.42V54.94H417.58V93.388ZM459.772 121.324C459.772 116.524 458.764 112.396 456.748 108.94C454.828 105.388 452.236 102.7 448.972 100.876C445.804 99.052 442.348 98.14 438.604 98.14C434.956 98.14 431.5 99.1 428.236 101.02C425.068 102.844 422.476 105.532 420.46 109.084C418.54 112.636 417.58 116.812 417.58 121.612C417.58 126.412 418.54 130.588 420.46 134.14C422.476 137.692 425.068 140.428 428.236 142.348C431.5 144.172 434.956 145.084 438.604 145.084C442.348 145.084 445.804 144.124 448.972 142.204C452.236 140.284 454.828 137.548 456.748 133.996C458.764 130.444 459.772 126.22 459.772 121.324ZM515.174 93.388C517.766 89.548 521.318 86.428 525.83 84.028C530.438 81.628 535.67 80.428 541.526 80.428C548.342 80.428 554.486 82.108 559.958 85.468C565.526 88.828 569.894 93.628 573.062 99.868C576.326 106.012 577.958 113.164 577.958 121.324C577.958 129.484 576.326 136.732 573.062 143.068C569.894 149.308 565.526 154.156 559.958 157.612C554.486 161.068 548.342 162.796 541.526 162.796C535.574 162.796 530.342 161.644 525.83 159.34C521.414 156.94 517.862 153.868 515.174 150.124V161.5H495.014V54.94H515.174V93.388ZM557.366 121.324C557.366 116.524 556.358 112.396 554.342 108.94C552.422 105.388 549.83 102.7 546.566 100.876C543.398 99.052 539.942 98.14 536.198 98.14C532.55 98.14 529.094 99.1 525.83 101.02C522.662 102.844 520.07 105.532 518.054 109.084C516.134 112.636 515.174 116.812 515.174 121.612C515.174 126.412 516.134 130.588 518.054 134.14C520.07 137.692 522.662 140.428 525.83 142.348C529.094 144.172 532.55 145.084 536.198 145.084C539.942 145.084 543.398 144.124 546.566 142.204C549.83 140.284 552.422 137.548 554.342 133.996C556.358 130.444 557.366 126.22 557.366 121.324ZM612.768 54.94V161.5H592.608V54.94H612.768ZM706.846 119.884C706.846 122.764 706.654 125.356 706.27 127.66H647.95C648.43 133.42 650.446 137.932 653.998 141.196C657.55 144.46 661.918 146.092 667.102 146.092C674.59 146.092 679.918 142.876 683.086 136.444H704.83C702.526 144.124 698.11 150.46 691.582 155.452C685.054 160.348 677.038 162.796 667.534 162.796C659.854 162.796 652.942 161.116 646.798 157.756C640.75 154.3 635.998 149.452 632.542 143.212C629.182 136.972 627.502 129.772 627.502 121.612C627.502 113.356 629.182 106.108 632.542 99.868C635.902 93.628 640.606 88.828 646.654 85.468C652.702 82.108 659.662 80.428 667.534 80.428C675.118 80.428 681.886 82.06 687.838 85.324C693.886 88.588 698.542 93.244 701.806 99.292C705.166 105.244 706.846 112.108 706.846 119.884ZM685.966 114.124C685.87 108.94 683.998 104.812 680.35 101.74C676.702 98.572 672.238 96.988 666.958 96.988C661.966 96.988 657.742 98.524 654.286 101.596C650.926 104.572 648.862 108.748 648.094 114.124H685.966ZM830.754 179.212L815.49 160.924C811.266 161.98 806.946 162.508 802.53 162.508C793.122 162.508 784.482 160.3 776.61 155.884C768.738 151.468 762.498 145.372 757.89 137.596C753.282 129.724 750.978 120.844 750.978 110.956C750.978 101.164 753.282 92.38 757.89 84.604C762.498 76.732 768.738 70.588 776.61 66.172C784.482 61.756 793.122 59.548 802.53 59.548C812.034 59.548 820.674 61.756 828.45 66.172C836.322 70.588 842.514 76.732 847.026 84.604C851.634 92.38 853.938 101.164 853.938 110.956C853.938 119.884 852.018 128.044 848.178 135.436C844.434 142.732 839.298 148.684 832.77 153.292L855.81 179.212H830.754ZM771.714 110.956C771.714 117.676 773.01 123.58 775.602 128.668C778.194 133.756 781.794 137.692 786.402 140.476C791.106 143.164 796.482 144.508 802.53 144.508C808.578 144.508 813.906 143.164 818.514 140.476C823.122 137.692 826.722 133.756 829.314 128.668C831.906 123.58 833.202 117.676 833.202 110.956C833.202 104.236 831.906 98.38 829.314 93.388C826.722 88.3 823.122 84.412 818.514 81.724C813.906 79.036 808.578 77.692 802.53 77.692C796.482 77.692 791.106 79.036 786.402 81.724C781.794 84.412 778.194 88.3 775.602 93.388C773.01 98.38 771.714 104.236 771.714 110.956ZM944.529 81.724V161.5H924.225V151.42C921.633 154.876 918.225 157.612 914.001 159.628C909.873 161.548 905.361 162.508 900.465 162.508C894.225 162.508 888.705 161.212 883.905 158.62C879.105 155.932 875.313 152.044 872.529 146.956C869.841 141.772 868.497 135.628 868.497 128.524V81.724H888.657V125.644C888.657 131.98 890.241 136.876 893.409 140.332C896.577 143.692 900.897 145.372 906.369 145.372C911.937 145.372 916.305 143.692 919.473 140.332C922.641 136.876 924.225 131.98 924.225 125.644V81.724H944.529ZM974.644 72.22C971.092 72.22 968.116 71.116 965.716 68.908C963.412 66.604 962.26 63.772 962.26 60.412C962.26 57.052 963.412 54.268 965.716 52.06C968.116 49.756 971.092 48.604 974.644 48.604C978.196 48.604 981.124 49.756 983.428 52.06C985.828 54.268 987.028 57.052 987.028 60.412C987.028 63.772 985.828 66.604 983.428 68.908C981.124 71.116 978.196 72.22 974.644 72.22ZM984.58 81.724V161.5H964.42V81.724H984.58ZM1022.93 144.94H1058.5V161.5H1000.03V145.228L1034.88 98.284H1000.18V81.724H1058.07V97.996L1022.93 144.94Z" fill="#333333"/>
</svg>
